@startuml
'https://plantuml.com/class-diagram

hide methods
left to right direction
skinparam classAttributeIconSize 0

class Company {

}

class Ship{
-MMSI
-name
-IMO
-callsign
-type
-length
-width
-draft
}

class CargoManifest{
-id
-shipMMSI
}

class CargoManifestLoad{
-cargoManifestid
-dateLoad
-done
-portID
}

class CargoManifestUnload{
-cargoManifestid
-dateUnload
-done
-portID
}

FleetManager "*" -- "1" Company : knows <
Company "1" -- "*" Ship : owns >
Ship "1" -- "*" Containers: has >
Ship "1" -- "*" CargoManifest: has >
CargoManifest "1" -- "*" CargoManifestLoad: has >
CargoManifest "1" -- "*" CargoManifestUnload: has >
CargoManifestLoad "*" -- "*" Containers: manages >
CargoManifestUnload "*" -- "*" Containers: manages >


@enduml