@startuml
'https://plantuml.com/class-diagram

hide methods
left to right direction
skinparam classAttributeIconSize 0

class Company {

}

class Containers{
-ContainerNumber
-ISOCode
-MaxWeight
-ContainerWeight
-MaxWeightPacked
-MaxVolumePacked
-Certificates
-RepairRecomendation
-Temperature
}

class Ship{
-MMSI
-name
-IMO
-callsign
-type
-length
-width
-draft
}

class Port{
-portID
-name
-continent
-country
-latitude
-longitude
}


class Client{
-clientID
-clientRegistrationCode
}

Company "1" -- "*" Client : has >
Company "1" -- "*" Port : has >
Company "1" -- "*" Ship : has >
Client "*" -- "*" Containers : leases > 
Port "1" -- "*" Containers: stores >
Ship "1" -- "*" Containers: transport >
Port "*" -- "*" Ship : docks <
@enduml