@startuml
'https://plantuml.com/class-diagram

skinparam classAttributeIconSize 0
left to right direction
hide methods

class Ship{
-MMSI
-name
-IMO
-callsign
-type
-length
-width
-draft
}

class Company{
}

class TrafficManager{
}

TrafficManager "*" -- "1" Company : knows <
TrafficManager "1" -- "*" Ship : manages >
Ship "*" -- "1" Company : < owns

@enduml