@startuml
'https://plantuml.com/class-diagram

hide methods
left to right direction
skinparam classAttributeIconSize 0

class Company {

}

class Containers{
-ContainerNumber
-ISOCode
-MaxWeight
-ContainerWeight
-MaxWeightPacked
-MaxVolumePacked
-Certificates
-RepairRecomendation
-Temperature
}

ShipChiefElectricalEngineer "*" -- "1" Company : knows <
ShipChiefElectricalEngineer "1" -- "*" Containers : manages >
@enduml