@startuml
'https://plantuml.com/class-diagram

hide methods
left to right direction
skinparam classAttributeIconSize 0

class Company {

}

class Containers{
-ContainerNumber
-ISOCode
-MaxWeight
-ContainerWeight
-MaxWeightPacked
-MaxVolumePacked
-Certificates
-RepairRecomendation
-Temperature
}

class Warehouse{
-WarehouseID
-WarehouseName
-Latitude
-Longitude
-CountryName
}

class CargoManifest{
-id
-shipMMSI
}

class CargoManifestLoad{
-cargoManifestid
-dateLoad
-done
-portID
}

class CargoManifestUnload{
-cargoManifestid
-dateUnload
-done
-portID
}


Company "1" -- "*" Warehouse : knows >
PortManager "*" -- "1" Company : knows <
CargoManifest "1" -- "*" CargoManifestLoad: has >
CargoManifest "1" -- "*" CargoManifestUnload: has >
CargoManifestLoad "*" -- "*" Containers: manages >
CargoManifestUnload "*" -- "*" Containers: manages >
Warehouse "*" -- "*" Containers: manages >
@enduml