@startuml
'https://plantuml.com/class-diagram

hide methods
left to right direction
skinparam classAttributeIconSize 0

class Company {

}

class Containers{
-ContainerNumber
-ISOCode
-MaxWeight
-ContainerWeight
-MaxWeightPacked
-MaxVolumePacked
-Certificates
-RepairRecomendation
-Temperature
}

class CargoManifest{
-id
-shipMMSI
}

class CargoManifestLoad{
-cargoManifestid
-dateLoad
-done
-portID
}

class CargoManifestUnload{
-cargoManifestid
-dateUnload
-done
-portID
}

class Client{
-clientID
-clientRegistrationCode
}

Company "1" -- "*" Client : has >
Client "*" -- "*" Containers : leased > 
CargoManifest "1" -- "*" CargoManifestLoad: has >
CargoManifest "1" -- "*" CargoManifestUnload: has >
CargoManifestLoad "*" -- "*" Containers: manages >
CargoManifestUnload "*" -- "*" Containers: manages >
@enduml